<svg id="Capa_1" enable-background="new 0 0 511.984 511.984" height="512" viewBox="0 0 511.984 511.984" width="512" xmlns="http://www.w3.org/2000/svg"><g><g><path d="m499.852 123.119h-31.575l-4.369 10.468v29.9l3.472 8.265h33.669l2.879-8.265v-29.9z" fill="#fee97d"/><path d="m95.924 496.997c0 4.135-3.352 7.487-7.487 7.487h-72.89c-4.135 0-7.487-3.352-7.487-7.487v-482.01c0-4.135 3.352-7.487 7.487-7.487h72.89c4.135 0 7.487 3.352 7.487 7.487z" fill="#b0e7c9"/><path d="m90 472.744c-25.701 0-46.536-20.835-46.536-46.536v-418.708h-27.917c-4.135 0-7.487 3.352-7.487 7.487v482.011c0 4.135 3.352 7.487 7.487 7.487h72.89c4.135 0 7.487-3.352 7.487-7.487v-24.254z" fill="#91deb6"/><g><path d="m256.618 113.367c-2.12 0-4.23 1.05-5.43 3.16l-53.59 94.36c-.89 1.56-2.41 2.66-4.18 3.03l-106.3 21.81c-4.74.98-6.62 6.75-3.35 10.32l73.17 80.14c1.22 1.33 1.8 3.11 1.6 4.9l-12.1 107.84c-.54 4.81 4.37 8.38 8.78 6.38l98.82-44.83c.82-.37 1.7-.56 2.58-.56l23.407-36.301v-200.042z" fill="#fef0ae"/></g><g><path d="m256.946 113.367v286.55c.88 0 1.76.19 2.58.56l98.82 44.83c4.41 2 9.32-1.57 8.78-6.38l-12.1-107.84c-.2-1.79.38-3.57 1.6-4.9l73.17-80.14c3.27-3.57 1.39-9.34-3.35-10.32l-106.3-21.81c-1.77-.37-3.29-1.47-4.18-3.03l-53.59-94.36c-1.2-2.11-3.31-3.16-5.43-3.16z" fill="#fff5c6"/></g><g><g><g id="XMLID_130_"><g><path d="m257.936 116.195-1.319-2.828c-2.12 0-4.23 1.05-5.43 3.16l-53.59 94.36c-.89 1.56-2.41 2.66-4.18 3.03l-106.3 21.81c-4.74.98-6.62 6.75-3.35 10.32l73.17 80.14c1.22 1.33 1.8 3.11 1.6 4.9l-12.1 107.84c-.54 4.81 4.37 8.38 8.78 6.38l25.032-11.356 12.05-110.27c.2-1.838-.38-3.666-1.6-5.031l-39.588-44.66c-9.572-10.799-3.676-27.912 10.516-30.523l52.064-9.579c1.974-.37 3.669-1.47 4.662-3.03l39.582-62.495v-52.168z" fill="#fee97d"/></g></g></g><g id="XMLID_143_"><g><path d="m503.928 101.187v32.4h-40.02v-32.4c0-7.56 6.14-13.69 13.7-13.69h12.62c7.56 0 13.7 6.13 13.7 13.69z" fill="#f7f6f7"/><path d="m501.056 427.867h-33.415l-3.733 10.23v6.65c0 1.08.25 2.15.73 3.12l16.7 33.78c1.05 2.14 4.1 2.14 5.16 0l16.7-33.78c.48-.97.73-2.04.73-3.12v-6.65z" fill="#f7f6f7"/><path d="m482.54 123.119h-14.263l-4.369 10.468v29.9l3.472 8.265h15.16z" fill="#fee45a"/><path d="m483.27 440.219c-.48-.958-.73-2.014-.73-3.081v-9.271h-14.899l-3.733 10.23v6.65c0 1.08.25 2.15.73 3.12l16.7 33.78c1.05 2.14 4.1 2.14 5.16 0l8.702-17.601z" fill="#eeeced"/><path d="m463.908 163.487h40.02v274.61h-40.02z" fill="#d1a08f"/></g></g><path d="m482.54 437.138v-273.651h-18.633v274.61h18.708c-.045-.318-.075-.637-.075-.959z" fill="#c68d7a"/><path d="m482.54 97.892c0-4.18 1.927-7.916 4.948-10.395h-9.881c-7.56 0-13.7 6.13-13.7 13.69v32.4h18.633z" fill="#eeeced"/></g></g><g><path d="m305.243 328.335c-2.605-3.22-7.329-3.718-10.548-1.111-1.709 1.383-3.591 2.734-5.593 4.017-3.488 2.234-4.504 6.873-2.27 10.361 1.432 2.235 3.852 3.456 6.322 3.456 1.385 0 2.786-.383 4.039-1.186 2.467-1.58 4.801-3.258 6.938-4.989 3.221-2.606 3.718-7.328 1.112-10.548z"/><path d="m222.339 264.857c4.142 0 7.5-3.358 7.5-7.5v-16.339c0-4.142-3.358-7.5-7.5-7.5s-7.5 3.358-7.5 7.5v16.339c0 4.142 3.358 7.5 7.5 7.5z"/><path d="m298.396 257.357v-16.339c0-4.142-3.358-7.5-7.5-7.5s-7.5 3.358-7.5 7.5v16.339c0 4.142 3.358 7.5 7.5 7.5s7.5-3.358 7.5-7.5z"/><path d="m371.569 414.176c-.461-4.116-4.175-7.073-8.29-6.617-4.116.462-7.079 4.173-6.617 8.29l2.436 21.712-11.093-5.033c-3.769-1.711-8.217-.041-9.929 3.731-1.711 3.772-.041 8.217 3.731 9.929l13.113 5.949c1.809.82 3.742 1.224 5.669 1.224 2.858 0 5.7-.889 8.083-2.621 3.991-2.9 6.128-7.746 5.578-12.648z"/><path d="m427.624 228.383-19.378-3.977c-4.057-.833-8.022 1.781-8.854 5.839-.833 4.058 1.781 8.022 5.839 8.854l17.205 3.531-7.082 7.755c-2.793 3.059-2.578 7.802.481 10.596 1.438 1.313 3.25 1.961 5.055 1.961 2.034 0 4.061-.822 5.541-2.443l8.577-9.393c3.327-3.642 4.446-8.819 2.922-13.511-1.525-4.69-5.473-8.22-10.306-9.212z"/><path d="m330.719 208.495-8.838-1.814-4.089-7.2c-2.046-3.602-6.624-4.861-10.226-2.817-3.602 2.046-4.863 6.624-2.817 10.226l4.373 7.697c1.958 3.445 5.306 5.876 9.185 6.672l9.398 1.929c.509.104 1.016.155 1.516.155 3.487 0 6.611-2.445 7.339-5.994.831-4.057-1.783-8.022-5.841-8.854z"/><path d="m383.687 227.022c.833-4.058-1.781-8.022-5.839-8.854l-16.731-3.434c-4.054-.831-8.022 1.782-8.854 5.839-.833 4.058 1.781 8.022 5.839 8.854l16.731 3.434c.509.104 1.016.155 1.516.155 3.485 0 6.609-2.445 7.338-5.994z"/><path d="m394.448 273.279-12.561 13.755c-2.793 3.059-2.578 7.803.48 10.596 1.439 1.314 3.25 1.962 5.056 1.962 2.034 0 4.061-.822 5.54-2.442l12.561-13.755c2.793-3.059 2.578-7.803-.48-10.596s-7.802-2.579-10.596.48z"/><path d="m348.486 342.972c.43 3.833 3.676 6.665 7.444 6.665.279 0 .562-.016.845-.047 4.116-.461 7.079-4.173 6.617-8.289l-1.175-10.481 9.841-10.776c2.793-3.059 2.578-7.803-.48-10.596s-7.802-2.578-10.596.48l-10.228 11.2c-2.67 2.925-3.949 6.861-3.507 10.796z"/><path d="m358.559 365.491c-4.116.462-7.079 4.173-6.617 8.29l1.264 11.261c.43 3.833 3.676 6.664 7.444 6.664.279 0 .562-.016.846-.047 4.116-.462 7.079-4.173 6.617-8.29l-1.264-11.261c-.462-4.117-4.174-7.08-8.29-6.617z"/><path d="m319.582 419.634-11.572-5.25c-3.771-1.71-8.217-.041-9.929 3.731-1.711 3.772-.041 8.217 3.731 9.929l11.572 5.25c1.005.456 2.058.672 3.094.672 2.853 0 5.579-1.637 6.834-4.403 1.713-3.772.042-8.217-3.73-9.929z"/><path d="m279.586 401.49-15.469-7.018v-38.951c1.279-.139 2.559-.298 3.835-.503 4.09-.654 6.875-4.5 6.222-8.589-.653-4.09-4.503-6.88-8.589-6.222-.489.078-.979.129-1.468.195v-205.041l5.243 9.23c2.046 3.603 6.625 4.862 10.226 2.817 3.602-2.046 4.863-6.624 2.817-10.226l-13.839-24.363c-1.1-1.937-2.639-3.538-4.447-4.716v-98.3c0-4.142-3.358-7.5-7.5-7.5s-7.5 3.358-7.5 7.5v98.3c-1.808 1.178-3.347 2.779-4.447 4.716l-53.316 93.861-33.533 6.882c-4.058.833-6.672 4.797-5.839 8.854.728 3.549 3.852 5.994 7.339 5.994.5 0 1.007-.05 1.516-.155l34.091-6.997c3.88-.796 7.229-3.228 9.187-6.673l45.003-79.226v205.25c-11.701-1.275-22.924-5.862-32.221-13.387-3.22-2.606-7.942-2.108-10.548 1.111-2.606 3.22-2.108 7.942 1.111 10.548 11.983 9.699 26.538 15.475 41.658 16.801v38.789l-94.981 43.09 11.852-105.638c.442-3.936-.836-7.872-3.508-10.798l-71.681-78.494 38.701-7.943c4.058-.833 6.672-4.797 5.839-8.854-.833-4.058-4.795-6.672-8.854-5.839l-40.875 8.389c-4.833.992-8.781 4.522-10.305 9.214s-.405 9.869 2.922 13.511l72.791 79.711-12.036 107.274c-.55 4.902 1.587 9.749 5.578 12.648 2.385 1.732 5.225 2.621 8.084 2.621 1.926 0 3.861-.403 5.669-1.224l90.804-41.195v93.54c0 4.142 3.358 7.5 7.5 7.5s7.5-3.358 7.5-7.5v-93.54l9.271 4.206c3.772 1.712 8.218.041 9.929-3.731 1.711-3.773.04-8.218-3.732-9.929z"/><path d="m289.411 179.888c1.382 2.432 3.918 3.797 6.528 3.797 1.255 0 2.528-.316 3.698-.98 3.602-2.046 4.863-6.625 2.817-10.226l-4.712-8.295c-2.047-3.602-6.625-4.862-10.226-2.817-3.602 2.046-4.863 6.625-2.817 10.226z"/><path d="m95.924 296.353c-4.142 0-7.5 3.358-7.5 7.5l.013 193.131-72.876.013-.001-28.5h12.951c4.142 0 7.5-3.358 7.5-7.5s-3.358-7.5-7.5-7.5h-12.952l-.001-29.94h12.953c4.142 0 7.5-3.358 7.5-7.5s-3.358-7.5-7.5-7.5h-12.953l-.001-29.941h12.954c4.142 0 7.5-3.358 7.5-7.5s-3.358-7.5-7.5-7.5h-12.954l-.001-29.941h12.955c4.142 0 7.5-3.358 7.5-7.5s-3.358-7.5-7.5-7.5h-12.955l-.001-29.94h12.956c4.142 0 7.5-3.358 7.5-7.5s-3.358-7.5-7.5-7.5h-12.957l-.001-29.941h12.958c4.142 0 7.5-3.358 7.5-7.5s-3.358-7.5-7.5-7.5h-12.958l-.001-29.94h12.959c4.142 0 7.5-3.358 7.5-7.5s-3.358-7.5-7.5-7.5h-12.959l-.001-29.941h12.96c4.142 0 7.5-3.358 7.5-7.5s-3.358-7.5-7.5-7.5h-12.96l-.001-29.941h12.961c4.142 0 7.5-3.358 7.5-7.5s-3.358-7.5-7.5-7.5h-12.962l-.001-29.94h12.963c4.142 0 7.5-3.358 7.5-7.5s-3.358-7.5-7.5-7.5h-12.963l-.001-34.032 72.876-.013v46.896c0 4.142 3.358 7.5 7.5 7.5s7.5-3.358 7.5-7.5v-46.896c.001-8.264-6.722-14.987-14.986-14.987h-72.89c-8.263 0-14.986 6.723-14.986 14.987v482.01c0 8.264 6.723 14.987 14.987 14.987h72.89c8.264 0 14.987-6.723 14.987-14.987v-193.144c-.001-4.142-3.359-7.5-7.501-7.5z"/><path d="m95.924 86.346c-4.142 0-7.5 3.358-7.5 7.5v109.452c0 4.142 3.358 7.5 7.5 7.5s7.5-3.358 7.5-7.5v-109.452c0-4.142-3.358-7.5-7.5-7.5z"/><path d="m490.225 79.994h-12.617c-11.688 0-21.198 9.509-21.198 21.198v249.948c0 4.142 3.358 7.5 7.5 7.5s7.5-3.358 7.5-7.5v-180.157h25.013v259.61h-25.013v-47.49c0-4.142-3.358-7.5-7.5-7.5s-7.5 3.358-7.5 7.5v61.647c0 2.223.521 4.451 1.505 6.44l16.695 33.776c1.763 3.566 5.33 5.782 9.308 5.781 3.978 0 7.543-2.216 9.305-5.781l16.695-33.776c.984-1.992 1.505-4.219 1.505-6.44v-343.559c0-11.688-9.509-21.197-21.198-21.197zm-12.617 15h12.617c3.417 0 6.198 2.78 6.198 6.198v24.9h-25.013v-24.9c.001-3.418 2.781-6.198 6.198-6.198zm-6.197 60.989v-14.891h25.013v14.891zm12.506 313.959-12.036-24.35h24.072z"/></g></g></svg>