<svg id="Capa_1" enable-background="new 0 0 512 512" height="512" viewBox="0 0 512 512" width="512" xmlns="http://www.w3.org/2000/svg"><g><path d="m301.48 273.368c-3.189-3.003-8.277-2.689-11.375.409l-26.507 26.507v-100.01l-16-.274v99.48l-25.704-25.704c-3.098-3.098-8.186-3.412-11.375-.409-3.3 3.107-3.359 8.303-.176 11.485l33.74 33.74c2.25 2.25 3.515 5.303 3.515 8.485v16.648l16 .274v-16.118c0-3.183 1.264-6.235 3.515-8.485l34.544-34.544c3.182-3.181 3.123-8.377-.177-11.484z" fill="#37eaab"/><g><path d="m175.598 376 14.248 113.984c1.001 8.007 7.807 14.016 15.876 14.016h99.751c8.069 0 14.875-6.009 15.876-14.016l14.249-113.984z" fill="#37eaab"/></g><g><path d="m306.661 414.015-7.374 58.977c-.501 4.004-3.904 7.008-7.939 7.008h-27.75c-13.255 0-24 10.745-24 24h65.875c8.069 0 14.876-6.009 15.877-14.016l11.248-89.984h-10.061c-8.069 0-14.875 6.008-15.876 14.015z" fill="#cff6df"/></g><g><path d="m343.598 344h-176c-4.418 0-8 3.582-8 8v16c0 4.418 3.582 8 8 8h176c4.418 0 8-3.582 8-8v-16c0-4.418-3.582-8-8-8z" fill="#37eaab"/></g><g><path d="m343.598 376h-136v-32h136c4.418 0 8 3.582 8 8v16c0 4.418-3.582 8-8 8z" fill="#cff6df"/></g><g><ellipse cx="176.402" cy="239.598" fill="#37eaab" rx="24" ry="56" transform="matrix(.707 -.707 .707 .707 -117.754 194.912)"/></g><g><ellipse cx="335.598" cy="239.598" fill="#37eaab" rx="56" ry="24" transform="matrix(.707 -.707 .707 .707 -71.127 307.48)"/></g><g><circle cx="255.598" cy="104" fill="#cff6df" r="96"/></g><g><path d="m268.073 8.788c-31.397-3.955-60.296 7.268-80.358 27.33 8.891 8.891 22.51 10.621 33.552 4.606 13.499-7.354 29.599-10.513 46.537-7.714 29.808 4.925 53.851 28.964 58.781 58.771 2.803 16.942-.356 33.047-7.713 46.551-6.015 11.041-4.283 24.66 4.607 33.551 20.064-20.064 31.288-48.969 27.329-80.369-5.394-42.787-39.948-77.336-82.735-82.726z" fill="#fff"/></g><g><path d="m255.598 208c-57.346 0-104-46.654-104-104s46.654-104 104-104 104 46.654 104 104-46.654 104-104 104zm0-192c-48.523 0-88 39.477-88 88s39.477 88 88 88 88-39.477 88-88-39.476-88-88-88z" fill="#00bdbd"/></g><path d="m267.983 95.917c-1.639-.579-3.31-1.181-4.981-1.806v-28.281c1.83.579 3.496 1.288 4.917 1.987 3.171 1.561 6.987.83 9.383-1.768 3.631-3.936 2.435-10.228-2.359-12.614-3.296-1.641-7.368-3.228-11.942-4.139v-5.685c0-4.418-3.582-8-8-8s-8 3.582-8 8v5.874c-.682.162-1.367.341-2.056.548-10.001 3.013-17.471 11.557-19.495 22.298-1.854 9.837 1.328 19.346 8.302 24.815 3.414 2.678 7.602 5.132 13.249 7.696v37.54c-4.334-.506-7.46-1.832-12.45-5.096-3.828-2.505-9.012-1.303-11.325 2.724-2.132 3.712-.788 8.488 2.802 10.82 8.163 5.302 13.913 7.084 20.973 7.624v5.936c0 4.418 3.582 8 8 8s8-3.582 8-8v-6.677c14.343-3.421 23.546-15.574 25.561-27.56 2.6-15.46-5.478-28.899-20.579-34.236zm-24.355-11.36c-2.222-1.743-3.185-5.379-2.453-9.263.584-3.1 2.41-6.736 5.827-8.803v20.359c-1.236-.745-2.374-1.509-3.374-2.293zm29.156 42.943c-.863 5.138-4.188 10.555-9.782 13.312v-29.677c10.931 4.072 10.258 13.536 9.782 16.365z" fill="#1e2e45"/><path d="m343.598 336h-176c-8.822 0-16 7.178-16 16v16c0 8.822 7.178 16 16 16h.938l13.372 106.976c1.498 11.986 11.736 21.024 23.815 21.024h99.751c12.078 0 22.316-9.038 23.814-21.023l13.372-106.977h.938c8.822 0 16-7.178 16-16v-16c0-8.822-7.178-16-16-16zm-30.186 152.992c-.5 3.995-3.913 7.008-7.938 7.008h-99.751c-4.026 0-7.439-3.013-7.938-7.008l-13.125-104.992h141.876zm30.186-120.992h-176v-16h176z" fill="#00bdbd"/><g><path d="m216 287.196c-.054 0-.108 0-.163-.001-24.772-.505-46.232-9.139-62.062-24.969s-24.464-37.29-24.969-62.062c-.044-2.178.801-4.28 2.342-5.82 1.54-1.541 3.633-2.374 5.82-2.342 24.772.505 46.233 9.139 62.062 24.969 15.83 15.83 24.464 37.291 24.969 62.062.044 2.178-.801 4.28-2.342 5.82-1.502 1.501-3.537 2.343-5.657 2.343zm-70.601-78.601c1.98 16.826 8.701 31.329 19.689 42.317s25.491 17.709 42.317 19.689c-1.98-16.826-8.701-31.329-19.689-42.317s-25.491-17.709-42.317-19.689z" fill="#00bdbd"/></g><g><path d="m296 287.196c-2.12 0-4.155-.841-5.657-2.343-1.541-1.54-2.386-3.642-2.342-5.82.505-24.771 9.139-46.232 24.969-62.062 15.829-15.83 37.29-24.464 62.062-24.969 2.203-.028 4.28.801 5.82 2.342 1.541 1.54 2.386 3.642 2.342 5.82-.505 24.772-9.139 46.232-24.969 62.062s-37.29 24.464-62.062 24.969c-.055 0-.109.001-.163.001zm70.601-78.601c-16.826 1.98-31.329 8.701-42.317 19.689s-17.709 25.491-19.689 42.317c16.826-1.98 31.329-8.701 42.317-19.689s17.709-25.491 19.689-42.317z" fill="#00bdbd"/></g><g><path d="m279.598 512h-73.875c-12.079 0-22.317-9.038-23.815-21.024l-8.248-65.984c-.548-4.384 2.562-8.382 6.946-8.93 4.377-.552 8.382 2.561 8.93 6.946l8.249 65.984c.499 3.995 3.912 7.008 7.938 7.008h73.875c4.418 0 8 3.582 8 8s-3.581 8-8 8z" fill="#1e2e45"/></g></g></svg>