<svg height="512pt" viewBox="-109 0 512 512.00173" width="512pt" xmlns="http://www.w3.org/2000/svg"><path d="m160.101562 37.070312c-33.964843 33.96875-39.574218 83.4375-12.527343 110.488282 27.042969 27.050781 76.503906 21.441406 110.46875-12.53125 33.964843-33.96875 39.574219-83.4375 12.527343-110.488282-27.046874-27.050781-76.507812-21.4375-110.46875 12.53125zm0 0" fill="#29ce69"/><path d="m168 29.894531c-2.710938 2.234375-5.347656 4.625-7.898438 7.179688-33.964843 33.96875-39.574218 83.4375-12.527343 110.488281 21.054687 21.058594 55.691406 22.320312 86.03125 5.820312-3.484375-55.753906-41.160157-100.242187-65.605469-123.488281zm0 0" fill="#00c140"/><path d="m129.257812 185.769531c0-29.535156 11.496094-57.300781 32.378907-78.183593l60.332031-60.339844c7.152344-7.15625 18.75-7.15625 25.902344 0 7.152344 7.152344 7.152344 18.753906 0 25.90625l-60.332032 60.34375c-13.960937 13.960937-21.648437 32.527344-21.648437 52.273437zm0 0" fill="#00b730"/><path d="m201.152344 68.058594-39.515625 39.523437c-20.878907 20.882813-32.378907 48.652344-32.378907 78.183594h36.632813c0-19.746094 7.6875-38.308594 21.648437-52.273437l32.566407-32.574219c-5.40625-11.957031-11.980469-22.964844-18.953125-32.859375zm0 0" fill="#00a62c"/><path d="m135.046875 37.070312c33.964844 33.96875 39.574219 83.4375 12.527344 110.488282-27.046875 27.050781-76.507813 21.441406-110.472657-12.53125-33.964843-33.96875-39.570312-83.4375-12.523437-110.488282 27.042969-27.050781 76.503906-21.4375 110.46875 12.53125zm0 0" fill="#73da8c"/><path d="m147.574219 366.222656c-10.117188 0-18.316407-8.199218-18.316407-18.320312v-162.132813c0-19.746093-7.691406-38.3125-21.652343-52.277343l-60.328125-60.339844c-7.15625-7.15625-7.15625-18.753906 0-25.910156 7.152344-7.152344 18.75-7.152344 25.902344 0l60.332031 60.34375c20.878906 20.882812 32.378906 48.648437 32.378906 78.183593v162.136719c0 10.117188-8.203125 18.316406-18.316406 18.316406zm0 0" fill="#29ce69"/><path d="m261.015625 440.207031c0 62.660157-50.789063 64.292969-113.441406 64.292969-62.652344 0-113.441407-1.632812-113.441407-64.292969 0-62.664062 50.789063-113.460937 113.441407-113.460937 62.652343 0 113.441406 50.796875 113.441406 113.460937zm0 0" fill="#ffe0b7"/><path d="m238.230469 371.988281c-20.703125-27.476562-53.605469-45.242187-90.65625-45.242187-62.652344 0-113.441407 50.796875-113.441407 113.460937 0 43.957031 24.996094 57.882813 61.546876 62.277344-12.746094-25.15625-13.121094-51.710937-10.238282-71.933594 2.582032-18.140625 18.746094-31.035156 37.035156-29.949219 63.628907 3.789063 115.753907-28.613281 115.753907-28.613281zm0 0" fill="#fdcb89"/><path d="m188.570312 251.96875-21.300781-23.515625c-10.550781-11.644531-28.839843-11.644531-39.390625 0l-21.300781 23.515625c-5.800781 6.402344-14.710937 8.988281-23.03125 6.683594l-24.046875-6.652344c-11.699219-3.238281-21.476562 9.285156-15.5 19.855469l31.046875 54.890625h145.050781l31.046875-54.890625c5.976563-10.570313-3.800781-23.09375-15.5-19.855469l-24.042969 6.652344c-8.324218 2.304687-17.234374-.28125-23.03125-6.683594zm0 0" fill="#ffe0b7"/><path d="m44 271.855469 31.046875 54.890625h72.144531c-56.730468-24.34375-63.648437-68.09375-63.648437-68.09375l-24.042969-6.652344c-11.699219-3.234375-21.476562 9.285156-15.5 19.855469zm0 0" fill="#fdcb89"/><path d="m226.347656 360.457031h-157.550781c-10.933594 0-19.796875-8.863281-19.796875-19.796875v-.003906c0-10.929688 8.863281-19.792969 19.796875-19.792969h157.550781c10.933594 0 19.796875 8.863281 19.796875 19.792969v.003906c0 10.933594-8.863281 19.796875-19.796875 19.796875zm0 0" fill="#f2ad9a"/><path d="m92.675781 340.660156c0-10.933594 8.859375-19.796875 19.792969-19.796875h-43.671875c-10.933594 0-19.796875 8.863281-19.796875 19.796875s8.863281 19.796875 19.796875 19.796875h43.671875c-10.933594 0-19.792969-8.863281-19.792969-19.796875zm0 0" fill="#e7896e"/><path d="m152.335938 423.585938h-9.523438c-2.902344 0-5.265625-2.363282-5.265625-5.265626 0-2.902343 2.363281-5.261718 5.265625-5.261718h19.316406c4.140625 0 7.5-3.359375 7.5-7.5 0-4.144532-3.359375-7.503906-7.5-7.503906h-7.105468v-4.214844c0-4.144532-3.359376-7.5-7.5-7.5-4.140626 0-7.5 3.355468-7.5 7.5v4.429687c-9.855469 1.367188-17.476563 9.824219-17.476563 20.050781 0 11.175782 9.089844 20.265626 20.265625 20.265626h9.523438c2.902343 0 5.261718 2.363281 5.261718 5.265624 0 2.902344-2.359375 5.265626-5.261718 5.265626h-18.644532c-4.140625 0-7.5 3.359374-7.5 7.5 0 4.144531 3.359375 7.5 7.5 7.5h6.332032v4.21875c0 4.140624 3.359374 7.5 7.5 7.5 4.140624 0 7.5-3.359376 7.5-7.5v-4.417969c9.90625-1.320313 17.578124-9.804688 17.578124-20.066407-.003906-11.175781-9.09375-20.265624-20.265624-20.265624zm0 0"/><path d="m253.644531 340.660156c0-11.878906-7.625-22-18.238281-25.746094l22.265625-39.363281c4.289063-7.578125 3.621094-16.550781-1.734375-23.414062-5.359375-6.863281-13.902344-9.6875-22.292969-7.367188l-24.042969 6.652344c-5.625 1.554687-11.554687-.164063-15.472656-4.488281l-20.738281-22.894532v-38.273437c0-5.210937.609375-10.328125 1.773437-15.28125 5.34375 1.160156 10.835938 1.742187 16.410157 1.742187 24.890625 0 51.21875-11.335937 71.773437-31.894531 36.832032-36.839843 42.453125-91.164062 12.523438-121.097656-29.925782-29.929687-84.238282-24.308594-121.074219 12.53125-2.539063 2.535156-4.953125 5.191406-7.234375 7.9375-2.261719-2.726563-4.65625-5.382813-7.210938-7.9375-36.835937-36.84375-91.148437-42.460937-121.078124-12.53125-24.511719 24.519531-25.765626 66.378906-3.046876 101.800781 2.238282 3.488282 6.875 4.5 10.363282 2.261719 3.484375-2.234375 4.5-6.875 2.261718-10.363281-18.878906-29.433594-18.457031-63.601563 1.027344-83.089844 24.078125-24.082031 68.878906-18.460938 99.863282 12.527344 23.207031 23.210937 32.558593 54.695312 24.808593 79.351562-4.496093-6.9375-9.753906-13.457031-15.738281-19.441406l-60.332031-60.34375c-4.875-4.875-22.796875-14.953125-36.507813 0-13.710937 14.957031-4.875 31.640625 0 36.519531l60.332032 60.339844c5.164062 5.167969 9.359374 11.046875 12.523437 17.402344-21.375 3.773437-46.625-4.007813-66.519531-21.011719-3.144532-2.691406-7.878906-2.320312-10.574219.832031-2.691406 3.148438-2.320313 7.882813.832031 10.574219 19.492188 16.660156 42.886719 25.625 65.03125 25.625 5.566406 0 11.054688-.582031 16.382813-1.734375 1.160156 4.953125 1.773437 10.070313 1.773437 15.28125v38.273437l-20.738281 22.894532c-3.917969 4.324218-9.847656 6.042968-15.472656 4.488281l-24.042969-6.652344c-8.390625-2.316406-16.933594.5-22.292969 7.367188-5.355469 6.863281-6.023437 15.835937-1.734375 23.414062l22.265625 39.363281c-10.613281 3.746094-18.238281 13.871094-18.238281 25.746094 0 9.59375 4.980469 18.039063 12.484375 22.910156-17.71875 21.5625-27.351563 48.359376-27.351563 76.636719 0 31.878907 12.40625 52.359375 37.929688 62.605469 21.207031 8.511719 48.949219 9.1875 83.011719 9.1875s61.800781-.675781 83.007812-9.1875c25.523438-10.246094 37.933594-30.726562 37.933594-62.605469 0-28.289062-9.625-55.050781-27.328125-76.601562 7.550781-4.875 12.457031-13.351563 12.457031-22.945313zm-96.980469-288.328125c2.675782-3.480469 5.597657-6.816406 8.738282-9.957031 30.988281-30.992188 75.785156-36.613281 99.863281-12.527344 24.082031 24.082032 18.460937 68.886719-12.523437 99.878906-20.640626 20.640626-48.757813 30.671876-72.425782 26.476563 3.164063-6.359375 7.359375-12.238281 12.527344-17.40625l60.332031-60.339844c4.875-4.878906 14.0625-21.390625 0-36.515625-9.695312-10.425781-26.445312-10.066406-36.511719 0l-46.007812 46.011719c-2.230469-12.113281-6.949219-24.273437-13.992188-35.621094zm15.386719 55.445313 55.21875-55.230469c4.214844-4.21875 11.230469-4.363281 15.296875 0 6.222656 6.675781 2.042969 13.257813 0 15.300781l-60.332031 60.339844c-6.046875 6.050781-11.011719 12.894531-14.828125 20.285156-1.113281-3.363281-2.386719-6.671875-3.800781-9.921875 5.140625-9.332031 7.914062-19.820312 8.445312-30.773437zm-119.472656-39.929688c-4.214844-4.21875-3.996094-10.871094 0-15.300781 5.300781-5.871094 13.253906-2.042969 15.296875 0l60.332031 60.34375c19.460938 19.464844 30.183594 45.347656 30.183594 72.878906v28.226563c-3.457031-1.160156-7.105469-1.777344-10.816406-1.777344-3.710938 0-7.363281.617188-10.816407 1.777344v-28.230469c0-21.75-8.472656-42.195313-23.847656-57.578125zm-1.546875 193.519532c.59375-.757813 2.804688-3.15625 6.472656-2.136719l24.042969 6.652343c11.121094 3.074219 22.839844-.324218 30.589844-8.878906l21.300781-23.515625c3.664062-4.042969 8.683594-6.269531 14.136719-6.269531 5.453125.003906 10.476562 2.226562 14.136719 6.269531l21.304687 23.515625c7.746094 8.554688 19.46875 11.957032 30.585937 8.878906l24.042969-6.652343c3.664063-1.015625 5.878907 1.378906 6.46875 2.136719.59375.757812 2.378907 3.488281.503907 6.792968l-25.5625 45.199219h-142.960938l-25.566406-45.195313c-1.871094-3.308593-.085938-6.039062.503906-6.796874zm96.542969 235.632812c-65.683594 0-105.941407-2.746094-105.941407-56.792969 0-27.0625 10.078126-52.570312 28.453126-72.25h126.636718c4.140625 0 7.5-3.355469 7.5-7.5s-3.359375-7.5-7.5-7.5h-127.925781c-6.777344 0-12.292969-5.515625-12.292969-12.296875s5.515625-12.296875 12.292969-12.296875h157.554687c6.777344 0 12.292969 5.515625 12.292969 12.296875 0 6.335938-4.761719 11.410156-11.027343 12.230469-8.3125 1.089844-10.4375 7.566406-5.585938 11.9375 18.027344 16.242187 31.484375 46.835937 31.484375 75.378906 0 54.046875-40.257813 56.792969-105.941406 56.792969zm0 0"/></svg>