<svg id="Layer_3" height="512" viewBox="0 0 512 512" width="512" xmlns="http://www.w3.org/2000/svg" data-name="Layer 3"><path d="m400 88h56l48 88-.682 336h-79.318l-.675-144.685-47.481-70.877z" fill="#f4a56e"/><path d="m33.009 93.489 13.677-25.009 13.678 25.009 25.009 13.677-25.009 13.678-13.678 25.009-13.677-25.009-25.009-13.678z" fill="#69d1e2"/><path d="m112 416v-378a30 30 0 0 1 30-30h228a30 30 0 0 1 30 30v348a30 30 0 0 1 -30 30z" fill="#90e3f5"/><path d="m424 512v-112s-24-24-24-64 24-64 24-64l-24-80s0-72 32-80l32 112 16 24 23.8 25.314v238.686z" fill="#ffbe92"/><g fill="#f69038"><circle cx="216" cy="280" r="16"/><circle cx="288" cy="280" r="16"/><path d="m184 136 24 72h93.647l12.706-72z"/></g><circle cx="264" cy="72" fill="#fff" r="24"/><path d="m313.009 337.009 13.677-25.009 13.678 25.009 25.009 13.677-25.009 13.678-13.678 25.009-13.677-25.009-25.009-13.678z" fill="#fff"/><path d="m370 8h-220.743l250.559 381.3a30.284 30.284 0 0 0 .184-3.3v-348a30 30 0 0 0 -30-30z" fill="#fafcfc" opacity=".3"/><path d="m169.979 212s13.761 20.649 0 48.5l-17.979 40.3-21.538-4.8z" fill="#232626" opacity=".2"/><path d="m168 363.893v-59.893l-37.808-7.562-52.111 63.992 41.919 55.57z" fill="#f4a56e"/><path d="m8 512v-144l152-176s24 24 0 56l-64 104 32 40s56-56 104-32l-88 88s3 32-48 48v16" fill="#ffbe92"/><path d="m264 104a32 32 0 1 0 -32-32 32.037 32.037 0 0 0 32 32zm0-48a16 16 0 1 1 -16 16 16.018 16.018 0 0 1 16-16z"/><path d="m369.212 343.668-22.953-12.554-12.554-22.953a8 8 0 0 0 -14.037 0l-12.554 22.953-22.953 12.554a8 8 0 0 0 0 14.037l22.953 12.554 12.554 22.953a8 8 0 0 0 14.037 0l12.554-22.953 22.953-12.554a8 8 0 0 0 0-14.037zm-32.687 13.678a8 8 0 0 0 -3.18 3.18l-6.658 12.174-6.659-12.176a8 8 0 0 0 -3.18-3.18l-12.176-6.659 12.176-6.659a8 8 0 0 0 3.18-3.18l6.659-12.176 6.659 12.176a8 8 0 0 0 3.18 3.18l12.176 6.659z"/><path d="m4.161 114.185 22.953 12.554 12.554 22.953a8 8 0 0 0 14.037 0l12.554-22.953 22.953-12.554a8 8 0 0 0 0-14.037l-22.953-12.554-12.554-22.952a8 8 0 0 0 -14.037 0l-12.554 22.952-22.953 12.553a8 8 0 0 0 0 14.037zm32.687-13.678a8 8 0 0 0 3.18-3.18l6.659-12.175 6.659 12.175a8 8 0 0 0 3.18 3.18l12.174 6.659-12.176 6.659a8 8 0 0 0 -3.18 3.18l-6.659 12.176-6.658-12.181a8 8 0 0 0 -3.18-3.18l-12.176-6.659z"/><path d="m463.023 84.169a8 8 0 0 0 -7.023-4.169h-48v-42a38.043 38.043 0 0 0 -38-38h-228a38.043 38.043 0 0 0 -38 38v206.6l-102.055 118.171a8 8 0 0 0 -1.945 5.229v144h16v-141.023l143.276-165.9a33.928 33.928 0 0 1 2.062 5.222c3.211 10.7.607 21.773-7.738 32.9q-.22.294-.413.607l-64 104a8 8 0 0 0 .566 9.19l32 40a8 8 0 0 0 11.9.659c.475-.476 43.947-43.343 83.784-34.412l-79.1 79.1a7.539 7.539 0 0 0 -2.314 6.352c.085 1.763.445 26.224-42.423 39.673a8 8 0 0 0 -5.6 7.632v16h16v-10.256c41.063-14.85 47.171-40.372 47.931-50.36l27.383-27.384h190.686a38.054 38.054 0 0 0 37.608-32.59 93.13 93.13 0 0 0 8.392 11.666v108.924h16v-112a8 8 0 0 0 -2.343-5.657c-.217-.216-21.657-22.076-21.657-58.343 0-35.961 21.46-58.144 21.657-58.343a8 8 0 0 0 2.006-7.956l-23.656-78.853c.182-15.815 4.052-54.543 18.957-67.354l29.344 102.7a8.014 8.014 0 0 0 1.036 2.239l16 24 13.313-8.875-15.307-22.958-31.658-110.8a8 8 0 0 0 -9.633-5.562c-8.829 2.207-16.2 7.972-22.06 17.216v-25.454h43.251l44.75 82.032-.678 333.951 16 .033.682-336a8 8 0 0 0 -.977-3.848zm-357.259 267.231 28.322-46.023 25.914 5.182v48.355a162.018 162.018 0 0 0 -16 9.776v-32.69h-16v43.195zm286.236 34.6a22.025 22.025 0 0 1 -22 22h-174.686l42.343-42.343a8 8 0 0 0 -2.079-12.812c-20.183-10.092-41.2-7.853-59.578-1.128v-47.717a8 8 0 0 0 -6.431-7.845l-26.543-5.309 23.6-38.35c21.961-29.581 9-56.19-.969-66.154a8 8 0 0 0 -11.712.429l-33.945 39.306v-188.077a22.025 22.025 0 0 1 22-22h228a22.025 22.025 0 0 1 22 22zm23.062-115.954a94.915 94.915 0 0 0 -7.062 9.916v-33.454z"/><path d="m208 216h84.112l-2.823 16h-89.289v16h96a8 8 0 0 0 7.878-6.609l23.051-130.618 34.641-6.928-3.139-15.689-40 8a8 8 0 0 0 -6.309 6.454l-4.481 25.39h-123.641a8 8 0 0 0 -7.59 10.53l24 72a8 8 0 0 0 7.59 5.47zm96.818-72-9.883 56h-81.17l-18.665-56z"/><path d="m216 256a24 24 0 1 0 24 24 24.027 24.027 0 0 0 -24-24zm0 32a8 8 0 1 1 8-8 8.009 8.009 0 0 1 -8 8z"/><path d="m312 280a24 24 0 1 0 -24 24 24.027 24.027 0 0 0 24-24zm-32 0a8 8 0 1 1 8 8 8.009 8.009 0 0 1 -8-8z"/><path d="m220 151.508h15.999v32.985h-15.999z" transform="matrix(.97 -.243 .243 .97 -33.938 60.314)"/><path d="m248 152h16v32h-16z"/><path d="m267.508 160h32.985v15.999h-32.985z" transform="matrix(.243 -.97 .97 .243 52.129 402.768)"/><path d="m144 32h16v16h-16z"/><path d="m168 32h16v16h-16z"/><path d="m448 32h16v16h-16z"/><path d="m56 200h16v16h-16z"/><path d="m280 448h16v16h-16z"/></svg>